# Blender v2.79 (sub 0) OBJ File: ''
# www.blender.org
mtllib Kaylee Head Eyes.mtl
o miya_player_Miya_head
v -0.955800 4.020954 3.504700
v -1.086900 3.888252 3.506500
v -0.950900 3.884655 3.484600
v -1.086700 3.765053 3.455800
v -1.223400 3.883053 3.487400
v -1.229300 3.751553 3.425800
v -1.086900 3.659256 3.375100
v -1.234800 3.637856 3.321300
v -1.367000 3.738754 3.339600
v -1.355200 3.875954 3.426600
v -1.469600 3.869854 3.322900
v -1.476400 3.737656 3.196900
v -1.550700 3.870255 3.181200
v -1.531600 4.016754 3.272900
v -1.583700 4.016056 3.150400
v -1.552400 4.162655 3.180300
v -1.471300 4.164955 3.322000
v -1.449500 4.017555 3.377600
v -1.357000 4.160755 3.425800
v -1.343100 4.018456 3.457600
v -1.219700 4.019455 3.507400
v -1.087600 4.020256 3.523400
v -0.833300 4.021553 3.452600
v -1.087400 3.577854 3.269800
v -0.939700 3.639656 3.318400
v -0.944600 3.753254 3.422900
v -0.820100 3.879154 3.421200
v -0.728600 4.021954 3.370500
v -0.707800 3.874355 3.315300
v -0.648600 4.022053 3.264100
v -0.808500 3.742153 3.334100
v -0.942000 3.559456 3.176100
v -1.088300 3.526554 3.147000
v -1.234400 3.557755 3.179100
v -1.367800 3.630253 3.196200
v -1.088500 4.152153 3.505700
v -1.225000 4.155556 3.486500
v -0.952500 4.157154 3.483800
v -0.821800 4.163956 3.420400
v -0.709600 4.169453 3.314500
v -0.631400 4.168156 3.171100
v -0.598900 4.022053 3.140700
v -0.629600 3.875755 3.172000
v -0.701900 3.742252 3.189200
v -0.809200 3.633553 3.190600
v -1.089800 4.274956 3.454400
v -0.947800 4.288456 3.421300
v -0.811900 4.300655 3.332400
v -0.705200 4.300854 3.187600
v -0.599600 3.889553 2.982800
v -0.583100 4.021656 2.982200
v -0.601200 4.153553 2.982000
v -0.652900 4.276154 2.982200
v -0.734600 4.381252 2.982700
v -0.813900 4.408154 3.188300
v -0.944300 4.401455 3.316100
v -1.091200 4.380253 3.373000
v -1.232500 4.286655 3.424100
v -0.840700 4.461655 2.983500
v -0.947600 4.480656 3.173300
v -1.092800 4.460953 3.267200
v -1.239500 4.399555 3.319000
v -1.370300 4.297253 3.337900
v -1.479800 4.296154 3.195200
v -1.535900 4.270855 2.990900
v -1.586100 4.147655 2.991800
v -1.602700 4.015453 2.992400
v -1.584500 3.883656 2.992600
v -1.455500 4.376953 2.989800
v -1.372500 4.404854 3.193800
v -1.240000 4.478855 3.176300
v -1.094300 4.511456 3.144100
v -0.963900 4.511852 2.984500
v -1.350500 4.458553 2.988500
v -1.227800 4.510254 2.987100
v -1.096000 4.528454 2.985700
v -1.532800 3.760956 2.992500
v -1.451200 3.655853 2.992000
v -1.345100 3.575554 2.991200
v -1.221800 3.525352 2.990100
v -1.089800 3.508755 2.988900
v -0.957900 3.526955 2.987500
v -0.835300 3.578655 2.986100
v -0.730200 3.660255 2.984800
v -0.649800 3.766354 2.983600
v 1.566500 4.017555 3.325000
v 1.586400 4.164955 3.268600
v 1.475700 4.160755 3.376400
v 1.463000 4.018555 3.408600
v 1.474000 3.875954 3.377200
v 1.584600 3.869854 3.269600
v 1.482700 3.738754 3.289900
v 1.587100 3.737553 3.143400
v 1.660700 3.870155 3.125100
v 1.636300 3.761055 2.937200
v 1.688000 3.883656 2.935500
v 1.692700 4.016155 3.093300
v 1.644900 4.016853 3.217400
v 1.662500 4.162556 3.124200
v 1.203400 4.511555 3.104000
v 1.199500 4.528454 2.945700
v 1.067500 4.511852 2.949000
v 1.331300 4.510254 2.942400
v 1.350100 4.478855 3.131000
v 1.453900 4.458652 2.939500
v 1.483100 4.404854 3.143900
v 1.559000 4.376953 2.937200
v 1.057800 4.480656 3.138300
v 0.944300 4.461655 2.952300
v 1.206100 4.460953 3.227100
v 1.354500 4.399555 3.273700
v 1.486000 4.297253 3.288100
v 1.590400 4.296253 3.141600
v 1.639400 4.270855 2.935500
v 0.924700 4.408253 3.157900
v 0.838200 4.381252 2.955200
v 1.059500 4.401455 3.281100
v 1.208300 4.380356 3.332900
v 1.351300 4.286655 3.379000
v 1.689600 4.147552 2.934600
v 1.706100 4.015553 2.934600
v 1.345900 4.155556 3.441600
v 1.209700 4.274956 3.414200
v 1.066600 4.288456 3.386100
v 0.927700 4.300552 3.302100
v 0.816100 4.300854 3.160900
v 0.756600 4.276253 2.957600
v 0.920100 3.633553 3.160400
v 0.833900 3.660255 2.957500
v 0.939000 3.578556 2.955100
v 1.052300 3.559456 3.141300
v 1.055000 3.639656 3.283500
v 1.200900 3.577953 3.229900
v 1.204000 3.659256 3.335200
v 1.350000 3.637856 3.276200
v 1.348100 3.751553 3.380800
v 1.344300 3.883053 3.442500
v 1.341300 4.019455 3.462700
v 1.210200 4.152054 3.465500
v 1.073500 4.157154 3.448400
v 0.940700 4.163956 3.389700
v 1.554700 3.655853 2.939500
v 1.478500 3.630253 3.146500
v 1.344600 3.557755 3.134000
v 1.197500 3.526653 3.107100
v 1.061600 3.526955 2.952200
v 1.448700 3.575554 2.942400
v 1.325500 3.525253 2.945700
v 1.193400 3.508755 2.949000
v 1.206600 3.765156 3.415800
v 1.063500 3.753254 3.387900
v 1.208600 3.888252 3.466400
v 1.209900 4.020256 3.483300
v 1.077500 4.020954 3.469200
v 0.953300 4.021553 3.421400
v 0.845700 4.021954 3.343000
v 0.824900 4.169453 3.287700
v 0.762100 4.022053 3.239500
v 0.741700 4.168156 3.147100
v 0.708100 4.022053 3.117900
v 0.739900 3.875755 3.148100
v 0.823100 3.874252 3.288600
v 1.071900 3.884655 3.449300
v 0.939000 3.879154 3.390500
v 0.812700 3.742252 3.162800
v 0.924400 3.742153 3.303900
v 0.705000 4.153454 2.959200
v 0.686800 4.021656 2.960000
v 0.703400 3.889656 2.960000
v 0.753600 3.766354 2.959200
vt 0.392100 0.500000
vt 0.500000 0.392600
vt 0.388700 0.389200
vt 0.500000 0.292000
vt 0.610800 0.389200
vt 0.616200 0.281700
vt 0.500000 0.206100
vt 0.620100 0.189500
vt 0.727500 0.272500
vt 0.718300 0.383800
vt 0.810500 0.379900
vt 0.815900 0.272500
vt 0.875500 0.380900
vt 0.860400 0.500000
vt 0.901900 0.500000
vt 0.875500 0.619400
vt 0.810500 0.620600
vt 0.793900 0.500000
vt 0.718300 0.616500
vt 0.708000 0.500000
vt 0.607400 0.500000
vt 0.500000 0.500000
vt 0.291700 0.500000
vt 0.500000 0.139600
vt 0.379400 0.189500
vt 0.383800 0.281700
vt 0.281500 0.383800
vt 0.205700 0.500000
vt 0.189100 0.379900
vt 0.139500 0.500000
vt 0.272000 0.272500
vt 0.380600 0.124500
vt 0.500000 0.098100
vt 0.619100 0.124500
vt 0.727500 0.184100
vt 0.500000 0.607900
vt 0.610800 0.611300
vt 0.388700 0.611300
vt 0.281500 0.616500
vt 0.189100 0.620600
vt 0.124100 0.619400
vt 0.098000 0.500000
vt 0.124100 0.380900
vt 0.183800 0.272500
vt 0.272000 0.184100
vt 0.500000 0.708300
vt 0.383800 0.718500
vt 0.272000 0.728000
vt 0.183800 0.728000
vt 0.054000 0.380900
vt 0.038300 0.500000
vt 0.054000 0.619600
vt 0.100100 0.731000
vt 0.173500 0.826500
vt 0.272000 0.816200
vt 0.379400 0.810900
vt 0.500000 0.794300
vt 0.616200 0.718500
vt 0.269000 0.899900
vt 0.380600 0.876000
vt 0.500000 0.860500
vt 0.620100 0.810900
vt 0.727500 0.728000
vt 0.815900 0.728000
vt 0.899400 0.731000
vt 0.945800 0.619600
vt 0.961400 0.500000
vt 0.945800 0.380900
vt 0.826200 0.826500
vt 0.727500 0.816200
vt 0.619100 0.876000
vt 0.500000 0.902000
vt 0.380400 0.946000
vt 0.730500 0.899900
vt 0.619100 0.946000
vt 0.500000 0.961700
vt 0.899400 0.269500
vt 0.826200 0.173800
vt 0.730500 0.100600
vt 0.619100 0.054200
vt 0.500000 0.038600
vt 0.380400 0.054200
vt 0.269000 0.100600
vt 0.173500 0.173800
vt 0.100100 0.269500
vt 0.793900 0.500000
vt 0.810500 0.620600
vt 0.718300 0.616500
vt 0.708000 0.500000
vt 0.718300 0.383800
vt 0.810500 0.379900
vt 0.727500 0.272500
vt 0.815900 0.272500
vt 0.875500 0.380900
vt 0.899400 0.269500
vt 0.945800 0.380900
vt 0.901900 0.500000
vt 0.860400 0.500000
vt 0.875500 0.619400
vt 0.500000 0.902000
vt 0.500000 0.961700
vt 0.380400 0.946000
vt 0.619100 0.946000
vt 0.619100 0.876000
vt 0.730500 0.899900
vt 0.727500 0.816200
vt 0.826200 0.826500
vt 0.380600 0.876000
vt 0.269000 0.899900
vt 0.500000 0.860500
vt 0.620100 0.810900
vt 0.727500 0.728000
vt 0.815900 0.728000
vt 0.899400 0.731000
vt 0.272000 0.816200
vt 0.173500 0.826500
vt 0.379400 0.810900
vt 0.500000 0.794300
vt 0.616200 0.718500
vt 0.945800 0.619600
vt 0.961400 0.500000
vt 0.610800 0.611300
vt 0.500000 0.708300
vt 0.383800 0.718500
vt 0.272000 0.728000
vt 0.183800 0.728000
vt 0.100100 0.731000
vt 0.272000 0.184100
vt 0.173500 0.173800
vt 0.269000 0.100600
vt 0.380600 0.124500
vt 0.379400 0.189500
vt 0.500000 0.139600
vt 0.500000 0.206100
vt 0.620100 0.189500
vt 0.616200 0.281700
vt 0.610800 0.389200
vt 0.607400 0.500000
vt 0.500000 0.607900
vt 0.388700 0.611300
vt 0.281500 0.616500
vt 0.826200 0.173800
vt 0.727500 0.184100
vt 0.619100 0.124500
vt 0.500000 0.098100
vt 0.380400 0.054200
vt 0.730500 0.100600
vt 0.619100 0.054200
vt 0.500000 0.038600
vt 0.500000 0.292000
vt 0.383800 0.281700
vt 0.500000 0.392600
vt 0.500000 0.500000
vt 0.392100 0.500000
vt 0.291700 0.500000
vt 0.205700 0.500000
vt 0.189100 0.620600
vt 0.139500 0.500000
vt 0.124100 0.619400
vt 0.098000 0.500000
vt 0.124100 0.380900
vt 0.189100 0.379900
vt 0.388700 0.389200
vt 0.281500 0.383800
vt 0.183800 0.272500
vt 0.272000 0.272500
vt 0.054000 0.619600
vt 0.038300 0.500000
vt 0.054000 0.380900
vt 0.100100 0.269500
vn 0.2664 0.0044 0.9638
vn 0.0115 -0.2540 0.9671
vn 0.2791 -0.2639 0.9233
vn 0.0118 -0.4948 0.8689
vn -0.2575 -0.2669 0.9286
vn -0.2722 -0.5254 0.8061
vn 0.0113 -0.7030 0.7111
vn -0.2854 -0.7482 0.5989
vn -0.5419 -0.5526 0.6331
vn -0.5166 -0.2839 0.8077
vn -0.7406 -0.2984 0.6020
vn -0.7563 -0.5571 0.3430
vn -0.9010 -0.2999 0.3134
vn -0.8616 -0.0035 0.5075
vn -0.9679 -0.0050 0.2514
vn -0.9045 0.2909 0.3117
vn -0.7442 0.2933 0.6000
vn -0.6981 -0.0022 0.7159
vn -0.5199 0.2826 0.8061
vn -0.4887 -0.0005 0.8724
vn -0.2476 0.0017 0.9688
vn 0.0101 0.0031 0.9999
vn 0.5058 0.0055 0.8626
vn 0.0102 -0.8650 0.5016
vn 0.3063 -0.7445 0.5932
vn 0.2944 -0.5219 0.8006
vn 0.5358 -0.2779 0.7973
vn 0.7123 0.0063 0.7018
vn 0.7560 -0.2895 0.5870
vn 0.8716 0.0067 0.4901
vn 0.5608 -0.5459 0.6224
vn 0.3040 -0.9031 0.3033
vn 0.0082 -0.9696 0.2446
vn -0.2871 -0.9066 0.3093
vn -0.5457 -0.7652 0.3416
vn 0.0082 0.2597 0.9656
vn -0.2607 0.2694 0.9270
vn 0.2758 0.2723 0.9218
vn 0.5324 0.2889 0.7956
vn 0.7525 0.3019 0.5853
vn 0.9071 0.3016 0.2936
vn 0.9726 0.0067 0.2325
vn 0.9106 -0.2890 0.2954
vn 0.7696 -0.5479 0.3278
vn 0.5616 -0.7585 0.3304
vn 0.0054 0.4999 0.8661
vn 0.2881 0.5302 0.7974
vn 0.5542 0.5566 0.6189
vn 0.7629 0.5592 0.3244
vn 0.9597 -0.2540 0.1197
vn 0.9950 0.0063 0.0992
vn 0.9566 0.2663 0.1181
vn 0.8544 0.5022 0.1330
vn 0.6963 0.7041 0.1390
vn 0.5523 0.7674 0.3257
vn 0.2972 0.7520 0.5883
vn 0.0024 0.7075 0.7067
vn -0.2786 0.5271 0.8028
vn 0.4929 0.8594 0.1355
vn 0.2928 0.9087 0.2976
vn -0.0005 0.8682 0.4962
vn -0.2946 0.7482 0.5944
vn -0.5484 0.5501 0.6297
vn -0.7630 0.5500 0.3396
vn -0.8575 0.4920 0.1501
vn -0.9572 0.2549 0.1370
vn -0.9928 -0.0057 0.1194
vn -0.9541 -0.2655 0.1384
vn -0.7021 0.6955 0.1530
vn -0.5550 0.7605 0.3369
vn -0.2977 0.9050 0.3038
vn -0.0035 0.9710 0.2390
vn 0.2555 0.9590 0.1227
vn -0.5004 0.8535 0.1452
vn -0.2646 0.9558 0.1279
vn -0.0050 0.9943 0.1067
vn -0.8516 -0.5013 0.1532
vn -0.6935 -0.7030 0.1575
vn -0.4897 -0.8588 0.1505
vn -0.2532 -0.9581 0.1334
vn 0.0070 -0.9937 0.1118
vn 0.2675 -0.9550 0.1281
vn 0.5032 -0.8527 0.1403
vn 0.7049 -0.6946 0.1432
vn 0.8604 -0.4911 0.1362
vn 0.7228 -0.0023 0.6910
vn 0.7648 0.2932 0.5736
vn 0.5475 0.2825 0.7877
vn 0.5187 -0.0005 0.8550
vn 0.5444 -0.2839 0.7893
vn 0.7612 -0.2984 0.5757
vn 0.5636 -0.5526 0.6139
vn 0.7678 -0.5571 0.3163
vn 0.9113 -0.3000 0.2818
vn 0.8565 -0.5013 0.1231
vn 0.9583 -0.2656 0.1051
vn 0.9760 -0.0052 0.2176
vn 0.8788 -0.0038 0.4771
vn 0.9149 0.2908 0.2799
vn 0.0120 0.9710 0.2388
vn 0.0086 0.9943 0.1059
vn -0.2513 0.9590 0.1314
vn 0.2689 0.9558 0.1184
vn 0.3084 0.9049 0.2933
vn 0.5050 0.8536 0.1279
vn 0.5662 0.7607 0.3173
vn 0.7069 0.6955 0.1285
vn -0.2823 0.9086 0.3077
vn -0.4877 0.8596 0.1524
vn 0.0178 0.8682 0.4958
vn 0.3152 0.7484 0.5835
vn 0.5700 0.5502 0.6102
vn 0.7743 0.5502 0.3127
vn 0.8623 0.4919 0.1201
vn -0.5407 0.7673 0.3448
vn -0.6911 0.7040 0.1634
vn -0.2766 0.7520 0.5983
vn 0.0222 0.7075 0.7063
vn 0.3064 0.5269 0.7927
vn 0.9615 0.2546 0.1034
vn 0.9964 -0.0057 0.0841
vn 0.2925 0.2694 0.9175
vn 0.0247 0.4994 0.8660
vn -0.2600 0.5302 0.8070
vn -0.5324 0.5565 0.6378
vn -0.7512 0.5591 0.3508
vn -0.8493 0.5021 0.1630
vn -0.5495 -0.7586 0.3500
vn -0.6997 -0.6945 0.1677
vn -0.4979 -0.8527 0.1581
vn -0.2929 -0.9031 0.3139
vn -0.2854 -0.7447 0.6032
vn 0.0073 -0.8652 0.5014
vn 0.0134 -0.7031 0.7110
vn 0.3062 -0.7483 0.5884
vn 0.3001 -0.5252 0.7963
vn 0.2897 -0.2669 0.9191
vn 0.2811 0.0016 0.9597
vn 0.0255 0.2597 0.9653
vn -0.2431 0.2724 0.9309
vn -0.5042 0.2889 0.8138
vn 0.6986 -0.7030 0.1329
vn 0.5571 -0.7653 0.3222
vn 0.2975 -0.9066 0.2991
vn 0.0003 -0.9695 0.2450
vn -0.2624 -0.9551 0.1376
vn 0.4951 -0.8585 0.1335
vn 0.2577 -0.9581 0.1252
vn -0.0037 -0.9936 0.1126
vn 0.0187 -0.4943 0.8691
vn -0.2663 -0.5219 0.8103
vn 0.0225 -0.2541 0.9669
vn 0.0248 0.0033 0.9997
vn -0.2326 0.0046 0.9726
vn -0.4752 0.0054 0.8798
vn -0.6874 0.0063 0.7262
vn -0.7317 0.3023 0.6109
vn -0.8539 0.0068 0.5203
vn -0.8962 0.3020 0.3250
vn -0.9639 0.0068 0.2661
vn -0.8998 -0.2890 0.3268
vn -0.7349 -0.2896 0.6131
vn -0.2466 -0.2637 0.9325
vn -0.5076 -0.2778 0.8155
vn -0.7577 -0.5479 0.3544
vn -0.5385 -0.5461 0.6417
vn -0.9520 0.2661 0.1511
vn -0.9910 0.0064 0.1336
vn -0.9551 -0.2540 0.1526
vn -0.8554 -0.4908 0.1657
usemtl miya_eye_R
s 1
f 1/1/1 2/2/2 3/3/3
f 2/2/2 4/4/4 3/3/3
f 2/2/2 5/5/5 4/4/4
f 4/4/4 5/5/5 6/6/6
f 4/4/4 6/6/6 7/7/7
f 7/7/7 6/6/6 8/8/8
f 6/6/6 9/9/9 8/8/8
f 5/5/5 10/10/10 6/6/6
f 6/6/6 10/10/10 9/9/9
f 10/10/10 11/11/11 9/9/9
f 9/9/9 11/11/11 12/12/12
f 11/11/11 13/13/13 12/12/12
f 11/11/11 14/14/14 13/13/13
f 14/14/14 15/15/15 13/13/13
f 14/14/14 16/16/16 15/15/15
f 14/14/14 17/17/17 16/16/16
f 18/18/18 17/17/17 14/14/14
f 18/18/18 19/19/19 17/17/17
f 20/20/20 19/19/19 18/18/18
f 20/20/20 18/18/18 10/10/10
f 5/5/5 20/20/20 10/10/10
f 21/21/21 20/20/20 5/5/5
f 2/2/2 21/21/21 5/5/5
f 22/22/22 21/21/21 2/2/2
f 22/22/22 2/2/2 1/1/1
f 10/10/10 18/18/18 11/11/11
f 18/18/18 14/14/14 11/11/11
f 1/1/1 3/3/3 23/23/23
f 7/7/7 8/8/8 24/24/24
f 7/7/7 24/24/24 25/25/25
f 26/26/26 7/7/7 25/25/25
f 4/4/4 7/7/7 26/26/26
f 3/3/3 4/4/4 26/26/26
f 3/3/3 26/26/26 27/27/27
f 23/23/23 3/3/3 27/27/27
f 23/23/23 27/27/27 28/28/28
f 28/28/28 27/27/27 29/29/29
f 28/28/28 29/29/29 30/30/30
f 27/27/27 31/31/31 29/29/29
f 27/27/27 26/26/26 31/31/31
f 26/26/26 25/25/25 31/31/31
f 25/25/25 24/24/24 32/32/32
f 24/24/24 33/33/33 32/32/32
f 24/24/24 34/34/34 33/33/33
f 24/24/24 8/8/8 34/34/34
f 8/8/8 35/35/35 34/34/34
f 8/8/8 9/9/9 35/35/35
f 9/9/9 12/12/12 35/35/35
f 21/21/21 36/36/36 37/37/37
f 22/22/22 36/36/36 21/21/21
f 22/22/22 1/1/1 36/36/36
f 36/36/36 1/1/1 38/38/38
f 1/1/1 23/23/23 38/38/38
f 38/38/38 23/23/23 39/39/39
f 23/23/23 28/28/28 39/39/39
f 39/39/39 28/28/28 40/40/40
f 28/28/28 30/30/30 40/40/40
f 40/40/40 30/30/30 41/41/41
f 30/30/30 42/42/42 41/41/41
f 30/30/30 43/43/43 42/42/42
f 30/30/30 29/29/29 43/43/43
f 29/29/29 44/44/44 43/43/43
f 29/29/29 31/31/31 44/44/44
f 31/31/31 45/45/45 44/44/44
f 31/31/31 25/25/25 45/45/45
f 25/25/25 32/32/32 45/45/45
f 36/36/36 46/46/46 37/37/37
f 36/36/36 38/38/38 46/46/46
f 46/46/46 38/38/38 47/47/47
f 38/38/38 39/39/39 47/47/47
f 47/47/47 39/39/39 48/48/48
f 39/39/39 40/40/40 48/48/48
f 48/48/48 40/40/40 49/49/49
f 40/40/40 41/41/41 49/49/49
f 42/42/42 43/43/43 50/50/50
f 42/42/42 50/50/50 51/51/51
f 42/42/42 51/51/51 52/52/52
f 41/41/41 42/42/42 52/52/52
f 41/41/41 52/52/52 53/53/53
f 49/49/49 41/41/41 53/53/53
f 49/49/49 53/53/53 54/54/54
f 55/55/55 49/49/49 54/54/54
f 48/48/48 49/49/49 55/55/55
f 56/56/56 48/48/48 55/55/55
f 47/47/47 48/48/48 56/56/56
f 57/57/57 47/47/47 56/56/56
f 46/46/46 47/47/47 57/57/57
f 46/46/46 57/57/57 58/58/58
f 37/37/37 46/46/46 58/58/58
f 37/37/37 58/58/58 19/19/19
f 20/20/20 37/37/37 19/19/19
f 21/21/21 37/37/37 20/20/20
f 55/55/55 54/54/54 59/59/59
f 60/60/60 55/55/55 59/59/59
f 56/56/56 55/55/55 60/60/60
f 61/61/61 56/56/56 60/60/60
f 57/57/57 56/56/56 61/61/61
f 57/57/57 61/61/61 62/62/62
f 58/58/58 57/57/57 62/62/62
f 58/58/58 62/62/62 63/63/63
f 19/19/19 58/58/58 63/63/63
f 19/19/19 63/63/63 17/17/17
f 17/17/17 63/63/63 64/64/64
f 17/17/17 64/64/64 16/16/16
f 16/16/16 64/64/64 65/65/65
f 16/16/16 65/65/65 66/66/66
f 15/15/15 16/16/16 66/66/66
f 15/15/15 66/66/66 67/67/67
f 15/15/15 67/67/67 68/68/68
f 13/13/13 15/15/15 68/68/68
f 64/64/64 69/69/69 65/65/65
f 64/64/64 70/70/70 69/69/69
f 63/63/63 70/70/70 64/64/64
f 63/63/63 62/62/62 70/70/70
f 62/62/62 71/71/71 70/70/70
f 62/62/62 61/61/61 71/71/71
f 61/61/61 72/72/72 71/71/71
f 61/61/61 60/60/60 72/72/72
f 72/72/72 60/60/60 73/73/73
f 60/60/60 59/59/59 73/73/73
f 70/70/70 74/74/74 69/69/69
f 70/70/70 71/71/71 74/74/74
f 71/71/71 75/75/75 74/74/74
f 71/71/71 72/72/72 75/75/75
f 72/72/72 76/76/76 75/75/75
f 72/72/72 73/73/73 76/76/76
f 13/13/13 68/68/68 77/77/77
f 12/12/12 13/13/13 77/77/77
f 12/12/12 77/77/77 78/78/78
f 35/35/35 12/12/12 78/78/78
f 35/35/35 78/78/78 79/79/79
f 34/34/34 35/35/35 79/79/79
f 34/34/34 79/79/79 80/80/80
f 33/33/33 34/34/34 80/80/80
f 33/33/33 80/80/80 81/81/81
f 33/33/33 81/81/81 82/82/82
f 32/32/32 33/33/33 82/82/82
f 32/32/32 82/82/82 83/83/83
f 45/45/45 32/32/32 83/83/83
f 45/45/45 83/83/83 84/84/84
f 44/44/44 45/45/45 84/84/84
f 44/44/44 84/84/84 85/85/85
f 43/43/43 44/44/44 85/85/85
f 43/43/43 85/85/85 50/50/50
usemtl miya_eye_L
f 86/86/86 87/87/87 88/88/88
f 89/89/89 86/86/86 88/88/88
f 89/89/89 90/90/90 86/86/86
f 90/90/90 91/91/91 86/86/86
f 90/90/90 92/92/92 91/91/91
f 92/92/92 93/93/93 91/91/91
f 91/91/91 93/93/93 94/94/94
f 93/93/93 95/95/95 94/94/94
f 94/94/94 95/95/95 96/96/96
f 94/94/94 96/96/96 97/97/97
f 98/98/98 94/94/94 97/97/97
f 98/98/98 97/97/97 99/99/99
f 98/98/98 99/99/99 87/87/87
f 86/86/86 98/98/98 87/87/87
f 86/86/86 91/91/91 98/98/98
f 91/91/91 94/94/94 98/98/98
f 100/100/100 101/101/101 102/102/102
f 100/100/100 103/103/103 101/101/101
f 104/104/104 103/103/103 100/100/100
f 104/104/104 105/105/105 103/103/103
f 106/106/106 105/105/105 104/104/104
f 106/106/106 107/107/107 105/105/105
f 108/108/108 102/102/102 109/109/109
f 100/100/100 102/102/102 108/108/108
f 110/110/110 100/100/100 108/108/108
f 110/110/110 104/104/104 100/100/100
f 111/111/111 104/104/104 110/110/110
f 111/111/111 106/106/106 104/104/104
f 112/112/112 106/106/106 111/111/111
f 112/112/112 113/113/113 106/106/106
f 113/113/113 107/107/107 106/106/106
f 113/113/113 114/114/114 107/107/107
f 115/115/115 109/109/109 116/116/116
f 108/108/108 109/109/109 115/115/115
f 117/117/117 108/108/108 115/115/115
f 110/110/110 108/108/108 117/117/117
f 118/118/118 110/110/110 117/117/117
f 118/118/118 111/111/111 110/110/110
f 119/119/119 111/111/111 118/118/118
f 119/119/119 112/112/112 111/111/111
f 88/88/88 112/112/112 119/119/119
f 88/88/88 87/87/87 112/112/112
f 87/87/87 113/113/113 112/112/112
f 87/87/87 99/99/99 113/113/113
f 99/99/99 114/114/114 113/113/113
f 99/99/99 120/120/120 114/114/114
f 97/97/97 120/120/120 99/99/99
f 97/97/97 121/121/121 120/120/120
f 97/97/97 96/96/96 121/121/121
f 89/89/89 88/88/88 122/122/122
f 122/122/122 88/88/88 119/119/119
f 122/122/122 119/119/119 123/123/123
f 123/123/123 119/119/119 118/118/118
f 123/123/123 118/118/118 124/124/124
f 118/118/118 117/117/117 124/124/124
f 124/124/124 117/117/117 125/125/125
f 117/117/117 115/115/115 125/125/125
f 125/125/125 115/115/115 126/126/126
f 115/115/115 116/116/116 126/126/126
f 126/126/126 116/116/116 127/127/127
f 128/128/128 129/129/129 130/130/130
f 128/128/128 130/130/130 131/131/131
f 132/132/132 128/128/128 131/131/131
f 132/132/132 131/131/131 133/133/133
f 134/134/134 132/132/132 133/133/133
f 134/134/134 133/133/133 135/135/135
f 134/134/134 135/135/135 136/136/136
f 136/136/136 135/135/135 92/92/92
f 136/136/136 92/92/92 90/90/90
f 137/137/137 136/136/136 90/90/90
f 137/137/137 90/90/90 89/89/89
f 138/138/138 137/137/137 89/89/89
f 138/138/138 89/89/89 122/122/122
f 138/138/138 122/122/122 139/139/139
f 139/139/139 122/122/122 123/123/123
f 139/139/139 123/123/123 140/140/140
f 123/123/123 124/124/124 140/140/140
f 140/140/140 124/124/124 141/141/141
f 93/93/93 142/142/142 95/95/95
f 143/143/143 142/142/142 93/93/93
f 92/92/92 143/143/143 93/93/93
f 135/135/135 143/143/143 92/92/92
f 135/135/135 144/144/144 143/143/143
f 133/133/133 144/144/144 135/135/135
f 133/133/133 145/145/145 144/144/144
f 133/133/133 131/131/131 145/145/145
f 131/131/131 146/146/146 145/145/145
f 131/131/131 130/130/130 146/146/146
f 143/143/143 147/147/147 142/142/142
f 144/144/144 147/147/147 143/143/143
f 144/144/144 148/148/148 147/147/147
f 145/145/145 148/148/148 144/144/144
f 145/145/145 149/149/149 148/148/148
f 145/145/145 146/146/146 149/149/149
f 150/150/150 151/151/151 134/134/134
f 150/150/150 134/134/134 136/136/136
f 150/150/150 136/136/136 137/137/137
f 152/152/152 150/150/150 137/137/137
f 152/152/152 137/137/137 138/138/138
f 153/153/153 152/152/152 138/138/138
f 153/153/153 138/138/138 139/139/139
f 153/153/153 139/139/139 154/154/154
f 139/139/139 140/140/140 154/154/154
f 154/154/154 140/140/140 155/155/155
f 140/140/140 141/141/141 155/155/155
f 155/155/155 141/141/141 156/156/156
f 141/141/141 157/157/157 156/156/156
f 156/156/156 157/157/157 158/158/158
f 157/157/157 159/159/159 158/158/158
f 158/158/158 159/159/159 160/160/160
f 158/158/158 160/160/160 161/161/161
f 158/158/158 161/161/161 162/162/162
f 154/154/154 155/155/155 163/163/163
f 155/155/155 164/164/164 163/163/163
f 155/155/155 156/156/156 164/164/164
f 156/156/156 162/162/162 164/164/164
f 156/156/156 158/158/158 162/162/162
f 162/162/162 161/161/161 165/165/165
f 162/162/162 165/165/165 166/166/166
f 164/164/164 162/162/162 166/166/166
f 164/164/164 166/166/166 151/151/151
f 163/163/163 164/164/164 151/151/151
f 163/163/163 151/151/151 150/150/150
f 152/152/152 163/163/163 150/150/150
f 154/154/154 163/163/163 152/152/152
f 153/153/153 154/154/154 152/152/152
f 124/124/124 125/125/125 141/141/141
f 141/141/141 125/125/125 157/157/157
f 125/125/125 126/126/126 157/157/157
f 157/157/157 126/126/126 159/159/159
f 126/126/126 127/127/127 159/159/159
f 159/159/159 127/127/127 167/167/167
f 159/159/159 167/167/167 160/160/160
f 160/160/160 167/167/167 168/168/168
f 160/160/160 168/168/168 169/169/169
f 160/160/160 169/169/169 161/161/161
f 161/161/161 169/169/169 170/170/170
f 161/161/161 170/170/170 165/165/165
f 165/165/165 170/170/170 129/129/129
f 165/165/165 129/129/129 128/128/128
f 166/166/166 165/165/165 128/128/128
f 166/166/166 128/128/128 132/132/132
f 151/151/151 166/166/166 132/132/132
f 151/151/151 132/132/132 134/134/134
